{"title":"Wolf Creek S01E06 Wolf Creek 720p HDTV HEVC 2CH x265","uid":15788376,"size":450600493,"categoryP":"video","categoryS":"hd___tv_shows","magnet":"?xt=urn:btih:b747f323dc644730ff9dfc51f3e84c327fcc2b9d&amp;dn=Wolf+Creek+S01E06+Wolf+Creek+720p+HDTV+HEVC+2CH+x265&amp;tr=udp%3A%2F%2Ftracker.leechers-paradise.org%3A6969&amp;tr=udp%3A%2F%2Fzer0day.ch%3A1337&amp;tr=udp%3A%2F%2Fopen.demonii.com%3A1337&amp;tr=udp%3A%2F%2Ftracker.coppersurfer.tk%3A6969&amp;tr=udp%3A%2F%2Fexodus.desync.com%3A6969","seeders":4,"leechers":3,"uploader":"nayhtut","files":1,"time":1473355314,"description":"Source: Wolf Creek S01E06 Wolf Creek 720p HDTV X264-BullRout (1 GB)\r\n\r\n\r\nComplete name                            : Wolf.Creek.S01E06.Wolf.Creek.720p.HDTV.HEVC.2CH.x265.mkv\r\nFormat                                   : Matroska\r\nFormat version                           : Version 4 / Version 2\r\nFile size                                : 430 MiB\r\nDuration                                 : 1h 0mn\r\nOverall bit rate                         : 999 Kbps\r\nWriting application                      : Lavf57.25.100\r\nWriting library                          : Lavf57.25.100\r\n\r\nVideo\r\n\r\nID                                       : 1\r\nFormat                                   : V_MPEGH/ISO/HEVC\r\nCodec ID                                 : V_MPEGH/ISO/HEVC\r\nDuration                                 : 1h 0mn\r\nBit rate                                 : 787 Kbps\r\nWidth                                    : 1 280 pixels\r\nHeight                                   : 640 pixels\r\nDisplay aspect ratio                     : 2.000\r\nFrame rate                               : 25.000 fps\r\nBits/(Pixel*Frame)                       : 0.038\r\nStream size                              : 339 MiB (79%)\r\nWriting library                          : Lavc57.48.101 libx265\r\nDefault                                  : Yes\r\nForced                                   : No\r\nDURATION                                 : 01:00:07.131000000\r\n\r\nAudio\r\n\r\nID                                       : 2\r\nFormat                                   : AC-3\r\nFormat/Info                              : Audio Coding 3\r\nMode extension                           : CM (complete main)\r\nFormat settings, Endianness              : Big\r\nCodec ID                                 : A_AC3\r\nDuration                                 : 1h 0mn\r\nBit rate mode                            : Constant\r\nBit rate                                 : 192 Kbps\r\nChannel(s)                               : 2 channels\r\nChannel positions                        : Front: L R\r\nSampling rate                            : 48.0 KHz\r\nBit depth                                : 16 bits\r\nCompression mode                         : Lossy\r\nStream size                              : 82.6 MiB (19%)\r\nWriting library                          : Lavc57.24.102 ac3\r\nDefault                                  : Yes\r\nForced                                   : No\r\nDURATION                                 : 01:00:07.103000000","torrent":{"xt":"urn:btih:b747f323dc644730ff9dfc51f3e84c327fcc2b9d","amp;dn":"Wolf+Creek+S01E06+Wolf+Creek+720p+HDTV+HEVC+2CH+x265","amp;tr":["udp%3A%2F%2Ftracker.leechers-paradise.org%3A6969","udp%3A%2F%2Fzer0day.ch%3A1337","udp%3A%2F%2Fopen.demonii.com%3A1337","udp%3A%2F%2Ftracker.coppersurfer.tk%3A6969","udp%3A%2F%2Fexodus.desync.com%3A6969"],"infoHash":"b747f323dc644730ff9dfc51f3e84c327fcc2b9d","infoHashBuffer":{"type":"Buffer","data":[183,71,243,35,220,100,71,48,255,157,252,81,243,232,76,50,127,204,43,157]},"announce":[],"urlList":[]}}